<svg width="144" height="60" viewBox="0 0 144 60" fill="none" xmlns="http://www.w3.org/2000/svg">
<rect width="144" height="60" fill="#E5E5E5"/>
<rect x="-1176" y="-132" width="1440" height="804" fill="white"/>
<rect x="-1176" y="-132" width="1440" height="804" fill="#69B4DE" fill-opacity="0.7"/>
<rect x="-1125" y="-85" width="1338" height="710" rx="5" fill="#F5F5F5"/>
<g filter="url(#filter0_d_0_1)">
<rect x="4" y="4" width="128" height="44" rx="5" fill="#F6C15D"/>
</g>
<path d="M62.3556 12.4934L58.2676 22.6154H56.5666L52.4786 12.4934H53.9906C54.154 12.4934 54.287 12.533 54.3896 12.6124C54.4923 12.6917 54.5693 12.7944 54.6206 12.9204L57.0076 19.0944C57.087 19.295 57.1616 19.5167 57.2316 19.7594C57.3063 19.9974 57.3763 20.247 57.4416 20.5084C57.4976 20.247 57.5583 19.9974 57.6236 19.7594C57.689 19.5167 57.7613 19.295 57.8406 19.0944L60.2136 12.9204C60.251 12.813 60.3233 12.715 60.4306 12.6264C60.5426 12.5377 60.678 12.4934 60.8366 12.4934H62.3556ZM64.9223 15.4334V22.6154H63.1863V15.4334H64.9223ZM65.1603 13.3404C65.1603 13.4897 65.13 13.6297 65.0693 13.7604C65.0087 13.891 64.927 14.0054 64.8243 14.1034C64.7263 14.2014 64.6097 14.2807 64.4743 14.3414C64.339 14.3974 64.1943 14.4254 64.0403 14.4254C63.891 14.4254 63.7487 14.3974 63.6133 14.3414C63.4827 14.2807 63.3683 14.2014 63.2703 14.1034C63.1723 14.0054 63.093 13.891 63.0323 13.7604C62.9763 13.6297 62.9483 13.4897 62.9483 13.3404C62.9483 13.1864 62.9763 13.0417 63.0323 12.9064C63.093 12.771 63.1723 12.6544 63.2703 12.5564C63.3683 12.4584 63.4827 12.3814 63.6133 12.3254C63.7487 12.2647 63.891 12.2344 64.0403 12.2344C64.1943 12.2344 64.339 12.2647 64.4743 12.3254C64.6097 12.3814 64.7263 12.4584 64.8243 12.5564C64.927 12.6544 65.0087 12.771 65.0693 12.9064C65.13 13.0417 65.1603 13.1864 65.1603 13.3404ZM71.312 18.1984C71.312 17.9744 71.2793 17.7644 71.214 17.5684C71.1533 17.3677 71.06 17.1927 70.934 17.0434C70.808 16.894 70.647 16.7774 70.451 16.6934C70.2597 16.6047 70.0357 16.5604 69.779 16.5604C69.2797 16.5604 68.8853 16.7027 68.596 16.9874C68.3113 17.272 68.1293 17.6757 68.05 18.1984H71.312ZM68.015 19.2414C68.043 19.61 68.1083 19.9297 68.211 20.2004C68.3137 20.4664 68.449 20.688 68.617 20.8654C68.785 21.038 68.9833 21.1687 69.212 21.2574C69.4453 21.3414 69.702 21.3834 69.982 21.3834C70.262 21.3834 70.5023 21.3507 70.703 21.2854C70.9083 21.22 71.0857 21.1477 71.235 21.0684C71.389 20.989 71.522 20.9167 71.634 20.8514C71.7507 20.786 71.8627 20.7534 71.97 20.7534C72.1147 20.7534 72.222 20.807 72.292 20.9144L72.789 21.5444C72.5977 21.7684 72.383 21.9574 72.145 22.1114C71.907 22.2607 71.6573 22.382 71.396 22.4754C71.1393 22.564 70.8757 22.627 70.605 22.6644C70.339 22.7017 70.08 22.7204 69.828 22.7204C69.3287 22.7204 68.8643 22.6387 68.435 22.4754C68.0057 22.3074 67.6323 22.0624 67.315 21.7404C66.9977 21.4137 66.748 21.0124 66.566 20.5364C66.384 20.0557 66.293 19.5004 66.293 18.8704C66.293 18.3804 66.3723 17.9207 66.531 17.4914C66.6897 17.0574 66.916 16.6817 67.21 16.3644C67.5087 16.0424 67.8703 15.788 68.295 15.6014C68.7243 15.4147 69.2073 15.3214 69.744 15.3214C70.1967 15.3214 70.6143 15.3937 70.997 15.5384C71.3797 15.683 71.7087 15.8954 71.984 16.1754C72.2593 16.4507 72.474 16.7914 72.628 17.1974C72.7867 17.5987 72.866 18.0584 72.866 18.5764C72.866 18.8377 72.838 19.015 72.782 19.1084C72.726 19.197 72.6187 19.2414 72.46 19.2414H68.015ZM84.3228 15.4334L82.0408 22.6154H80.6548C80.4962 22.6154 80.3865 22.5127 80.3258 22.3074L79.0378 18.1564C78.9958 18.0164 78.9562 17.8787 78.9188 17.7434C78.8862 17.6034 78.8582 17.4634 78.8348 17.3234C78.8068 17.4634 78.7742 17.6057 78.7368 17.7504C78.7042 17.8904 78.6668 18.0304 78.6248 18.1704L77.3158 22.3074C77.2598 22.5127 77.1362 22.6154 76.9448 22.6154H75.6148L73.3398 15.4334H74.7188C74.8448 15.4334 74.9522 15.4637 75.0408 15.5244C75.1295 15.585 75.1878 15.662 75.2158 15.7554L76.2448 19.5914C76.2962 19.8014 76.3405 20.0067 76.3778 20.2074C76.4198 20.408 76.4548 20.6087 76.4828 20.8094C76.5342 20.6087 76.5878 20.408 76.6438 20.2074C76.7045 20.0067 76.7675 19.8014 76.8328 19.5914L78.0228 15.7414C78.0508 15.648 78.1045 15.571 78.1838 15.5104C78.2678 15.4497 78.3682 15.4194 78.4848 15.4194H79.2478C79.3692 15.4194 79.4718 15.4497 79.5558 15.5104C79.6445 15.571 79.7028 15.648 79.7308 15.7414L80.8858 19.5914C80.9465 19.8014 81.0025 20.009 81.0538 20.2144C81.1098 20.415 81.1635 20.6157 81.2148 20.8164C81.2755 20.4197 81.3618 20.0114 81.4738 19.5914L82.5308 15.7554C82.5635 15.662 82.6218 15.585 82.7058 15.5244C82.7898 15.4637 82.8902 15.4334 83.0068 15.4334H84.3228ZM45.7614 31.0404H42.7094V39.6154H40.8264V31.0404H37.7744V29.4934H45.7614V31.0404ZM47.0357 33.6794C47.2597 33.25 47.5257 32.914 47.8337 32.6714C48.1417 32.424 48.5057 32.3004 48.9257 32.3004C49.2571 32.3004 49.5231 32.3727 49.7237 32.5174L49.6117 33.8124C49.5884 33.8964 49.5534 33.957 49.5067 33.9944C49.4647 34.027 49.4064 34.0434 49.3317 34.0434C49.2617 34.0434 49.1567 34.0317 49.0167 34.0084C48.8814 33.985 48.7484 33.9734 48.6177 33.9734C48.4264 33.9734 48.2561 34.0014 48.1067 34.0574C47.9574 34.1134 47.8221 34.195 47.7007 34.3024C47.5841 34.405 47.4791 34.531 47.3857 34.6804C47.2971 34.8297 47.2131 35 47.1337 35.1914V39.6154H45.4047V32.4334H46.4197C46.5971 32.4334 46.7207 32.466 46.7907 32.5314C46.8607 32.592 46.9074 32.704 46.9307 32.8674L47.0357 33.6794ZM54.3257 36.5494C53.8264 36.5727 53.4064 36.617 53.0657 36.6824C52.725 36.743 52.452 36.8224 52.2467 36.9204C52.0414 37.0184 51.8944 37.1327 51.8057 37.2634C51.717 37.394 51.6727 37.5364 51.6727 37.6904C51.6727 37.9937 51.7614 38.2107 51.9387 38.3414C52.1207 38.472 52.3564 38.5374 52.6457 38.5374C53.0004 38.5374 53.306 38.4744 53.5627 38.3484C53.824 38.2177 54.0784 38.0217 54.3257 37.7604V36.5494ZM50.3637 33.4344C51.1897 32.6784 52.1837 32.3004 53.3457 32.3004C53.7657 32.3004 54.1414 32.3704 54.4727 32.5104C54.804 32.6457 55.084 32.837 55.3127 33.0844C55.5414 33.327 55.714 33.6187 55.8307 33.9594C55.952 34.3 56.0127 34.6734 56.0127 35.0794V39.6154H55.2287C55.0654 39.6154 54.9394 39.592 54.8507 39.5454C54.762 39.494 54.692 39.3937 54.6407 39.2444L54.4867 38.7264C54.3047 38.8897 54.1274 39.0344 53.9547 39.1604C53.782 39.2817 53.6024 39.3844 53.4157 39.4684C53.229 39.5524 53.0284 39.6154 52.8137 39.6574C52.6037 39.704 52.3704 39.7274 52.1137 39.7274C51.8104 39.7274 51.5304 39.6877 51.2737 39.6084C51.017 39.5244 50.7954 39.4007 50.6087 39.2374C50.422 39.074 50.2774 38.871 50.1747 38.6284C50.072 38.3857 50.0207 38.1034 50.0207 37.7814C50.0207 37.5994 50.051 37.4197 50.1117 37.2424C50.1724 37.0604 50.2704 36.8877 50.4057 36.7244C50.5457 36.561 50.7254 36.407 50.9447 36.2624C51.164 36.1177 51.4324 35.9917 51.7497 35.8844C52.0717 35.777 52.445 35.6907 52.8697 35.6254C53.2944 35.5554 53.7797 35.5134 54.3257 35.4994V35.0794C54.3257 34.5987 54.223 34.244 54.0177 34.0154C53.8124 33.782 53.516 33.6654 53.1287 33.6654C52.8487 33.6654 52.6154 33.698 52.4287 33.7634C52.2467 33.8287 52.0857 33.9034 51.9457 33.9874C51.8057 34.0667 51.6774 34.139 51.5607 34.2044C51.4487 34.2697 51.3227 34.3024 51.1827 34.3024C51.0614 34.3024 50.9587 34.272 50.8747 34.2114C50.7907 34.146 50.723 34.0714 50.6717 33.9874L50.3637 33.4344ZM59.2581 33.3154C59.4027 33.1707 59.5544 33.0377 59.7131 32.9164C59.8764 32.7904 60.0467 32.6854 60.2241 32.6014C60.4061 32.5127 60.5997 32.445 60.8051 32.3984C61.0104 32.347 61.2344 32.3214 61.4771 32.3214C61.8691 32.3214 62.2167 32.389 62.5201 32.5244C62.8234 32.655 63.0754 32.8417 63.2761 33.0844C63.4814 33.3224 63.6354 33.6094 63.7381 33.9454C63.8454 34.2767 63.8991 34.643 63.8991 35.0444V39.6154H62.1701V35.0444C62.1701 34.6057 62.0697 34.2674 61.8691 34.0294C61.6684 33.7867 61.3627 33.6654 60.9521 33.6654C60.6534 33.6654 60.3734 33.733 60.1121 33.8684C59.8507 34.0037 59.6034 34.188 59.3701 34.4214V39.6154H57.6411V32.4334H58.6981C58.9221 32.4334 59.0691 32.5384 59.1391 32.7484L59.2581 33.3154ZM69.9254 33.8334C69.8787 33.908 69.8297 33.9617 69.7784 33.9944C69.7271 34.0224 69.6617 34.0364 69.5824 34.0364C69.4984 34.0364 69.4074 34.013 69.3094 33.9664C69.2161 33.9197 69.1064 33.8684 68.9804 33.8124C68.8544 33.7517 68.7097 33.698 68.5464 33.6514C68.3877 33.6047 68.1987 33.5814 67.9794 33.5814C67.6387 33.5814 67.3704 33.6537 67.1744 33.7984C66.9831 33.943 66.8874 34.132 66.8874 34.3654C66.8874 34.5194 66.9364 34.65 67.0344 34.7574C67.1371 34.86 67.2701 34.951 67.4334 35.0304C67.6014 35.1097 67.7904 35.182 68.0004 35.2474C68.2104 35.308 68.4227 35.3757 68.6374 35.4504C68.8567 35.525 69.0714 35.6114 69.2814 35.7094C69.4914 35.8027 69.6781 35.924 69.8414 36.0734C70.0094 36.218 70.1424 36.393 70.2404 36.5984C70.3431 36.8037 70.3944 37.051 70.3944 37.3404C70.3944 37.6857 70.3314 38.0054 70.2054 38.2994C70.0841 38.5887 69.9021 38.8407 69.6594 39.0554C69.4167 39.2654 69.1157 39.431 68.7564 39.5524C68.4017 39.669 67.9911 39.7274 67.5244 39.7274C67.2771 39.7274 67.0344 39.704 66.7964 39.6574C66.5631 39.6154 66.3367 39.5547 66.1174 39.4754C65.9027 39.396 65.7021 39.3027 65.5154 39.1954C65.3334 39.088 65.1724 38.9714 65.0324 38.8454L65.4314 38.1874C65.4827 38.108 65.5434 38.0474 65.6134 38.0054C65.6834 37.9634 65.7721 37.9424 65.8794 37.9424C65.9867 37.9424 66.0871 37.9727 66.1804 38.0334C66.2784 38.094 66.3904 38.1594 66.5164 38.2294C66.6424 38.2994 66.7894 38.3647 66.9574 38.4254C67.1301 38.486 67.3471 38.5164 67.6084 38.5164C67.8137 38.5164 67.9887 38.493 68.1334 38.4464C68.2827 38.395 68.4041 38.3297 68.4974 38.2504C68.5954 38.171 68.6654 38.08 68.7074 37.9774C68.7541 37.87 68.7774 37.7604 68.7774 37.6484C68.7774 37.4804 68.7261 37.3427 68.6234 37.2354C68.5254 37.128 68.3924 37.0347 68.2244 36.9554C68.0611 36.876 67.8721 36.806 67.6574 36.7454C67.4474 36.68 67.2304 36.61 67.0064 36.5354C66.7871 36.4607 66.5701 36.3744 66.3554 36.2764C66.1454 36.1737 65.9564 36.0454 65.7884 35.8914C65.6251 35.7374 65.4921 35.5484 65.3894 35.3244C65.2914 35.1004 65.2424 34.8297 65.2424 34.5124C65.2424 34.2184 65.3007 33.9384 65.4174 33.6724C65.5341 33.4064 65.7044 33.1754 65.9284 32.9794C66.1571 32.7787 66.4394 32.62 66.7754 32.5034C67.1161 32.382 67.5081 32.3214 67.9514 32.3214C68.4461 32.3214 68.8964 32.403 69.3024 32.5664C69.7084 32.7297 70.0467 32.9444 70.3174 33.2104L69.9254 33.8334ZM76.8408 33.9524C76.7894 34.0177 76.7381 34.069 76.6868 34.1064C76.6401 34.1437 76.5701 34.1624 76.4768 34.1624C76.3881 34.1624 76.3018 34.1367 76.2178 34.0854C76.1338 34.0294 76.0334 33.9687 75.9168 33.9034C75.8001 33.8334 75.6601 33.7727 75.4968 33.7214C75.3381 33.6654 75.1398 33.6374 74.9018 33.6374C74.5984 33.6374 74.3324 33.6934 74.1038 33.8054C73.8751 33.9127 73.6838 34.069 73.5298 34.2744C73.3804 34.4797 73.2684 34.7294 73.1938 35.0234C73.1191 35.3127 73.0818 35.6417 73.0818 36.0104C73.0818 36.393 73.1214 36.7337 73.2008 37.0324C73.2848 37.331 73.4038 37.583 73.5578 37.7884C73.7118 37.989 73.8984 38.143 74.1178 38.2504C74.3371 38.353 74.5844 38.4044 74.8598 38.4044C75.1351 38.4044 75.3568 38.3717 75.5248 38.3064C75.6974 38.2364 75.8421 38.1617 75.9588 38.0824C76.0754 37.9984 76.1758 37.9237 76.2598 37.8584C76.3484 37.7884 76.4464 37.7534 76.5538 37.7534C76.6938 37.7534 76.7988 37.807 76.8688 37.9144L77.3658 38.5444C77.1744 38.7684 76.9668 38.9574 76.7428 39.1114C76.5188 39.2607 76.2854 39.382 76.0428 39.4754C75.8048 39.564 75.5574 39.627 75.3008 39.6644C75.0488 39.7017 74.7968 39.7204 74.5448 39.7204C74.1014 39.7204 73.6838 39.6387 73.2918 39.4754C72.8998 39.3074 72.5568 39.0647 72.2628 38.7474C71.9688 38.43 71.7354 38.0427 71.5628 37.5854C71.3948 37.1234 71.3108 36.5984 71.3108 36.0104C71.3108 35.483 71.3854 34.9954 71.5348 34.5474C71.6888 34.0947 71.9128 33.705 72.2068 33.3784C72.5008 33.047 72.8648 32.788 73.2988 32.6014C73.7328 32.4147 74.2321 32.3214 74.7968 32.3214C75.3334 32.3214 75.8024 32.4077 76.2038 32.5804C76.6098 32.753 76.9738 33.0004 77.2958 33.3224L76.8408 33.9524ZM80.0807 33.6794C80.3047 33.25 80.5707 32.914 80.8787 32.6714C81.1867 32.424 81.5507 32.3004 81.9707 32.3004C82.302 32.3004 82.568 32.3727 82.7687 32.5174L82.6567 33.8124C82.6333 33.8964 82.5983 33.957 82.5517 33.9944C82.5097 34.027 82.4513 34.0434 82.3767 34.0434C82.3067 34.0434 82.2017 34.0317 82.0617 34.0084C81.9263 33.985 81.7933 33.9734 81.6627 33.9734C81.4713 33.9734 81.301 34.0014 81.1517 34.0574C81.0023 34.1134 80.867 34.195 80.7457 34.3024C80.629 34.405 80.524 34.531 80.4307 34.6804C80.342 34.8297 80.258 35 80.1787 35.1914V39.6154H78.4497V32.4334H79.4647C79.642 32.4334 79.7657 32.466 79.8357 32.5314C79.9057 32.592 79.9523 32.704 79.9757 32.8674L80.0807 33.6794ZM85.4643 32.4334V39.6154H83.7283V32.4334H85.4643ZM85.7023 30.3404C85.7023 30.4897 85.672 30.6297 85.6113 30.7604C85.5506 30.891 85.469 31.0054 85.3663 31.1034C85.2683 31.2014 85.1516 31.2807 85.0163 31.3414C84.881 31.3974 84.7363 31.4254 84.5823 31.4254C84.433 31.4254 84.2906 31.3974 84.1553 31.3414C84.0246 31.2807 83.9103 31.2014 83.8123 31.1034C83.7143 31.0054 83.635 30.891 83.5743 30.7604C83.5183 30.6297 83.4903 30.4897 83.4903 30.3404C83.4903 30.1864 83.5183 30.0417 83.5743 29.9064C83.635 29.771 83.7143 29.6544 83.8123 29.5564C83.9103 29.4584 84.0246 29.3814 84.1553 29.3254C84.2906 29.2647 84.433 29.2344 84.5823 29.2344C84.7363 29.2344 84.881 29.2647 85.0163 29.3254C85.1516 29.3814 85.2683 29.4584 85.3663 29.5564C85.469 29.6544 85.5506 29.771 85.6113 29.9064C85.672 30.0417 85.7023 30.1864 85.7023 30.3404ZM88.956 37.7534C89.152 37.9914 89.3643 38.1594 89.593 38.2574C89.8263 38.3554 90.0783 38.4044 90.349 38.4044C90.6103 38.4044 90.846 38.3554 91.056 38.2574C91.266 38.1594 91.4433 38.01 91.588 37.8094C91.7373 37.6087 91.8517 37.3567 91.931 37.0534C92.0103 36.7454 92.05 36.3837 92.05 35.9684C92.05 35.5484 92.015 35.1937 91.945 34.9044C91.8797 34.6104 91.784 34.3724 91.658 34.1904C91.532 34.0084 91.378 33.8754 91.196 33.7914C91.0187 33.7074 90.8157 33.6654 90.587 33.6654C90.2277 33.6654 89.922 33.7424 89.67 33.8964C89.418 34.0457 89.18 34.258 88.956 34.5334V37.7534ZM88.865 33.4134C89.159 33.082 89.4927 32.8137 89.866 32.6084C90.2393 32.403 90.678 32.3004 91.182 32.3004C91.574 32.3004 91.931 32.382 92.253 32.5454C92.5797 32.7087 92.8597 32.9467 93.093 33.2594C93.331 33.5674 93.513 33.95 93.639 34.4074C93.7697 34.86 93.835 35.3804 93.835 35.9684C93.835 36.505 93.7627 37.002 93.618 37.4594C93.4733 37.9167 93.2657 38.3134 92.995 38.6494C92.729 38.9854 92.4047 39.249 92.022 39.4404C91.644 39.627 91.2193 39.7204 90.748 39.7204C90.3467 39.7204 90.0037 39.6597 89.719 39.5384C89.4343 39.4124 89.18 39.2397 88.956 39.0204V41.9604H87.227V32.4334H88.284C88.508 32.4334 88.655 32.5384 88.725 32.7484L88.865 33.4134ZM97.4823 39.7274C96.857 39.7274 96.3763 39.5524 96.0403 39.2024C95.709 38.8477 95.5433 38.36 95.5433 37.7394V33.7284H94.8083C94.715 33.7284 94.6357 33.698 94.5703 33.6374C94.505 33.5767 94.4723 33.4857 94.4723 33.3644V32.6784L95.6273 32.4894L95.9913 30.5294C96.0147 30.436 96.059 30.3637 96.1243 30.3124C96.1897 30.261 96.2737 30.2354 96.3763 30.2354H97.2723V32.4964H99.1903V33.7284H97.2723V37.6204C97.2723 37.8444 97.326 38.0194 97.4333 38.1454C97.5453 38.2714 97.697 38.3344 97.8883 38.3344C97.9957 38.3344 98.0843 38.3227 98.1543 38.2994C98.229 38.2714 98.292 38.2434 98.3433 38.2154C98.3993 38.1874 98.4483 38.1617 98.4903 38.1384C98.5323 38.1104 98.5743 38.0964 98.6163 38.0964C98.6677 38.0964 98.7097 38.1104 98.7423 38.1384C98.775 38.1617 98.81 38.199 98.8473 38.2504L99.3653 39.0904C99.1133 39.3004 98.824 39.459 98.4973 39.5664C98.1707 39.6737 97.8323 39.7274 97.4823 39.7274Z" fill="#101F40"/>
<defs>
<filter id="filter0_d_0_1" x="0" y="0" width="144" height="60" filterUnits="userSpaceOnUse" color-interpolation-filters="sRGB">
<feFlood flood-opacity="0" result="BackgroundImageFix"/>
<feColorMatrix in="SourceAlpha" type="matrix" values="0 0 0 0 0 0 0 0 0 0 0 0 0 0 0 0 0 0 127 0" result="hardAlpha"/>
<feOffset dx="4" dy="4"/>
<feGaussianBlur stdDeviation="4"/>
<feComposite in2="hardAlpha" operator="out"/>
<feColorMatrix type="matrix" values="0 0 0 0 0 0 0 0 0 0 0 0 0 0 0 0 0 0 0.25 0"/>
<feBlend mode="normal" in2="BackgroundImageFix" result="effect1_dropShadow_0_1"/>
<feBlend mode="normal" in="SourceGraphic" in2="effect1_dropShadow_0_1" result="shape"/>
</filter>
</defs>
</svg>
