<svg width="144" height="60" viewBox="0 0 144 60" fill="none" xmlns="http://www.w3.org/2000/svg">
<g filter="url(#filter0_d_356_418)">
<rect x="4" y="4" width="128" height="44" rx="5" fill="#F6C15D"/>
</g>
<path d="M50.4354 28.613C50.5381 28.613 50.6291 28.6527 50.7084 28.732L51.4504 29.537C51.0398 30.0457 50.5334 30.4353 49.9314 30.706C49.3341 30.9767 48.6154 31.112 47.7754 31.112C47.0241 31.112 46.3474 30.9837 45.7454 30.727C45.1481 30.4703 44.6371 30.1133 44.2124 29.656C43.7878 29.1987 43.4611 28.6527 43.2324 28.018C43.0084 27.3833 42.8964 26.6903 42.8964 25.939C42.8964 25.1783 43.0178 24.483 43.2604 23.853C43.5031 23.2183 43.8438 22.6723 44.2824 22.215C44.7258 21.7577 45.2531 21.403 45.8644 21.151C46.4758 20.8943 47.1524 20.766 47.8944 20.766C48.6318 20.766 49.2851 20.8873 49.8544 21.13C50.4284 21.3727 50.9161 21.69 51.3174 22.082L50.6874 22.957C50.6501 23.013 50.6011 23.062 50.5404 23.104C50.4844 23.146 50.4051 23.167 50.3024 23.167C50.2324 23.167 50.1601 23.1483 50.0854 23.111C50.0108 23.069 49.9291 23.02 49.8404 22.964C49.7518 22.9033 49.6491 22.838 49.5324 22.768C49.4158 22.698 49.2804 22.635 49.1264 22.579C48.9724 22.5183 48.7928 22.4693 48.5874 22.432C48.3868 22.39 48.1534 22.369 47.8874 22.369C47.4348 22.369 47.0194 22.4507 46.6414 22.614C46.2681 22.7727 45.9461 23.006 45.6754 23.314C45.4048 23.6173 45.1948 23.9907 45.0454 24.434C44.8961 24.8727 44.8214 25.3743 44.8214 25.939C44.8214 26.5083 44.9008 27.0147 45.0594 27.458C45.2228 27.9013 45.4421 28.2747 45.7174 28.578C45.9928 28.8813 46.3171 29.1147 46.6904 29.278C47.0638 29.4367 47.4651 29.516 47.8944 29.516C48.1511 29.516 48.3821 29.502 48.5874 29.474C48.7974 29.446 48.9888 29.4017 49.1614 29.341C49.3388 29.2803 49.5044 29.2033 49.6584 29.11C49.8171 29.012 49.9734 28.893 50.1274 28.753C50.1741 28.711 50.2231 28.6783 50.2744 28.655C50.3258 28.627 50.3794 28.613 50.4354 28.613ZM55.4949 23.706C56.0269 23.706 56.5099 23.7923 56.9439 23.965C57.3826 24.1377 57.7559 24.3827 58.0639 24.7C58.3766 25.0173 58.6169 25.4047 58.7849 25.862C58.9529 26.3193 59.0369 26.8303 59.0369 27.395C59.0369 27.9643 58.9529 28.4777 58.7849 28.935C58.6169 29.3923 58.3766 29.782 58.0639 30.104C57.7559 30.426 57.3826 30.6733 56.9439 30.846C56.5099 31.0187 56.0269 31.105 55.4949 31.105C54.9582 31.105 54.4706 31.0187 54.0319 30.846C53.5932 30.6733 53.2176 30.426 52.9049 30.104C52.5969 29.782 52.3566 29.3923 52.1839 28.935C52.0159 28.4777 51.9319 27.9643 51.9319 27.395C51.9319 26.8303 52.0159 26.3193 52.1839 25.862C52.3566 25.4047 52.5969 25.0173 52.9049 24.7C53.2176 24.3827 53.5932 24.1377 54.0319 23.965C54.4706 23.7923 54.9582 23.706 55.4949 23.706ZM55.4949 29.775C56.0922 29.775 56.5332 29.5743 56.8179 29.173C57.1072 28.7717 57.2519 28.1837 57.2519 27.409C57.2519 26.6343 57.1072 26.044 56.8179 25.638C56.5332 25.232 56.0922 25.029 55.4949 25.029C54.8882 25.029 54.4379 25.2343 54.1439 25.645C53.8546 26.051 53.7099 26.639 53.7099 27.409C53.7099 28.179 53.8546 28.767 54.1439 29.173C54.4379 29.5743 54.8882 29.775 55.4949 29.775ZM61.973 24.7C62.1176 24.5553 62.2693 24.4223 62.428 24.301C62.5913 24.175 62.7616 24.07 62.939 23.986C63.121 23.8973 63.3146 23.8297 63.52 23.783C63.7253 23.7317 63.9493 23.706 64.192 23.706C64.584 23.706 64.9316 23.7737 65.235 23.909C65.5383 24.0397 65.7903 24.2263 65.991 24.469C66.1963 24.707 66.3503 24.994 66.453 25.33C66.5603 25.6613 66.614 26.0277 66.614 26.429V31H64.885V26.429C64.885 25.9903 64.7846 25.652 64.584 25.414C64.3833 25.1713 64.0776 25.05 63.667 25.05C63.3683 25.05 63.0883 25.1177 62.827 25.253C62.5656 25.3883 62.3183 25.5727 62.085 25.806V31H60.356V23.818H61.413C61.637 23.818 61.784 23.923 61.854 24.133L61.973 24.7ZM68.6463 31V25.12L68.0233 25.022C67.8879 24.994 67.7783 24.9473 67.6943 24.882C67.6149 24.812 67.5753 24.714 67.5753 24.588V23.881H68.6463V23.65C68.6463 23.2113 68.7186 22.8053 68.8633 22.432C69.0079 22.054 69.2273 21.7273 69.5213 21.452C69.8153 21.1767 70.1863 20.962 70.6343 20.808C71.0869 20.6493 71.6189 20.57 72.2303 20.57C72.4263 20.57 72.6246 20.5817 72.8253 20.605C73.0306 20.6237 73.2079 20.6563 73.3573 20.703L73.3013 21.599C73.2919 21.7063 73.2336 21.7717 73.1263 21.795C73.0189 21.8137 72.8859 21.823 72.7273 21.823C72.2746 21.823 71.8943 21.8627 71.5863 21.942C71.2829 22.0213 71.0356 22.1403 70.8443 22.299C70.6576 22.453 70.5223 22.649 70.4383 22.887C70.3589 23.1203 70.3193 23.3933 70.3193 23.706V23.881H74.7713V31H73.0423V25.113H70.3753V31H68.6463ZM78.1745 25.064C78.3985 24.6347 78.6645 24.2987 78.9725 24.056C79.2805 23.8087 79.6445 23.685 80.0645 23.685C80.3958 23.685 80.6618 23.7573 80.8625 23.902L80.7505 25.197C80.7271 25.281 80.6921 25.3417 80.6455 25.379C80.6035 25.4117 80.5451 25.428 80.4705 25.428C80.4005 25.428 80.2955 25.4163 80.1555 25.393C80.0201 25.3697 79.8871 25.358 79.7565 25.358C79.5651 25.358 79.3948 25.386 79.2455 25.442C79.0961 25.498 78.9608 25.5797 78.8395 25.687C78.7228 25.7897 78.6178 25.9157 78.5245 26.065C78.4358 26.2143 78.3518 26.3847 78.2725 26.576V31H76.5435V23.818H77.5585C77.7358 23.818 77.8595 23.8507 77.9295 23.916C77.9995 23.9767 78.0461 24.0887 78.0695 24.252L78.1745 25.064ZM81.7661 31V23.818H82.8231C83.0471 23.818 83.1941 23.923 83.2641 24.133L83.3761 24.665C83.5021 24.525 83.6328 24.3967 83.7681 24.28C83.9081 24.1633 84.0551 24.063 84.2091 23.979C84.3678 23.895 84.5358 23.8297 84.7131 23.783C84.8951 23.7317 85.0934 23.706 85.3081 23.706C85.7608 23.706 86.1318 23.8297 86.4211 24.077C86.7151 24.3197 86.9344 24.644 87.0791 25.05C87.1911 24.812 87.3311 24.609 87.4991 24.441C87.6671 24.2683 87.8514 24.1283 88.0521 24.021C88.2528 23.9137 88.4651 23.8343 88.6891 23.783C88.9178 23.7317 89.1464 23.706 89.3751 23.706C89.7718 23.706 90.1241 23.7667 90.4321 23.888C90.7401 24.0093 90.9991 24.1867 91.2091 24.42C91.4191 24.6533 91.5778 24.938 91.6851 25.274C91.7971 25.61 91.8531 25.995 91.8531 26.429V31H90.1241V26.429C90.1241 25.9717 90.0238 25.6287 89.8231 25.4C89.6224 25.1667 89.3284 25.05 88.9411 25.05C88.7638 25.05 88.5981 25.0803 88.4441 25.141C88.2948 25.2017 88.1618 25.2903 88.0451 25.407C87.9331 25.519 87.8444 25.6613 87.7791 25.834C87.7138 26.0067 87.6811 26.205 87.6811 26.429V31H85.9451V26.429C85.9451 25.9483 85.8471 25.5983 85.6511 25.379C85.4598 25.1597 85.1774 25.05 84.8041 25.05C84.5521 25.05 84.3164 25.113 84.0971 25.239C83.8824 25.3603 83.6818 25.5283 83.4951 25.743V31H81.7661Z" fill="#101F40"/>
<defs>
<filter id="filter0_d_356_418" x="0" y="0" width="144" height="60" filterUnits="userSpaceOnUse" color-interpolation-filters="sRGB">
<feFlood flood-opacity="0" result="BackgroundImageFix"/>
<feColorMatrix in="SourceAlpha" type="matrix" values="0 0 0 0 0 0 0 0 0 0 0 0 0 0 0 0 0 0 127 0" result="hardAlpha"/>
<feOffset dx="4" dy="4"/>
<feGaussianBlur stdDeviation="4"/>
<feComposite in2="hardAlpha" operator="out"/>
<feColorMatrix type="matrix" values="0 0 0 0 0 0 0 0 0 0 0 0 0 0 0 0 0 0 0.25 0"/>
<feBlend mode="normal" in2="BackgroundImageFix" result="effect1_dropShadow_356_418"/>
<feBlend mode="normal" in="SourceGraphic" in2="effect1_dropShadow_356_418" result="shape"/>
</filter>
</defs>
</svg>
