<svg width="143" height="52" viewBox="0 0 143 52" fill="none" xmlns="http://www.w3.org/2000/svg">
<g filter="url(#filter0_d_1_577)">
<rect x="4" y="4" width="127" height="36" rx="5" fill="#F6C15D"/>
</g>
<path d="M29.382 21.178C29.838 21.178 30.234 21.121 30.57 21.007C30.912 20.893 31.191 20.737 31.407 20.539C31.629 20.335 31.794 20.095 31.902 19.819C32.01 19.543 32.064 19.24 32.064 18.91C32.064 18.25 31.845 17.743 31.407 17.389C30.975 17.035 30.312 16.858 29.418 16.858H27.87V21.178H29.382ZM35.61 28H33.423C33.009 28 32.709 27.838 32.523 27.514L29.787 23.347C29.685 23.191 29.571 23.08 29.445 23.014C29.325 22.948 29.145 22.915 28.905 22.915H27.87V28H25.449V14.986H29.418C30.3 14.986 31.056 15.079 31.686 15.265C32.322 15.445 32.841 15.7 33.243 16.03C33.651 16.36 33.951 16.756 34.143 17.218C34.335 17.674 34.431 18.178 34.431 18.73C34.431 19.168 34.365 19.582 34.233 19.972C34.107 20.362 33.921 20.716 33.675 21.034C33.435 21.352 33.135 21.631 32.775 21.871C32.421 22.111 32.016 22.3 31.56 22.438C31.716 22.528 31.86 22.636 31.992 22.762C32.124 22.882 32.244 23.026 32.352 23.194L35.61 28ZM42.0158 22.321C42.0158 22.033 41.9738 21.763 41.8898 21.511C41.8118 21.253 41.6918 21.028 41.5298 20.836C41.3678 20.644 41.1608 20.494 40.9088 20.386C40.6628 20.272 40.3748 20.215 40.0448 20.215C39.4028 20.215 38.8958 20.398 38.5238 20.764C38.1578 21.13 37.9238 21.649 37.8218 22.321H42.0158ZM37.7768 23.662C37.8128 24.136 37.8968 24.547 38.0288 24.895C38.1608 25.237 38.3348 25.522 38.5508 25.75C38.7668 25.972 39.0218 26.14 39.3158 26.254C39.6158 26.362 39.9458 26.416 40.3058 26.416C40.6658 26.416 40.9748 26.374 41.2328 26.29C41.4968 26.206 41.7248 26.113 41.9168 26.011C42.1148 25.909 42.2858 25.816 42.4298 25.732C42.5798 25.648 42.7238 25.606 42.8618 25.606C43.0478 25.606 43.1858 25.675 43.2758 25.813L43.9148 26.623C43.6688 26.911 43.3928 27.154 43.0868 27.352C42.7808 27.544 42.4598 27.7 42.1238 27.82C41.7938 27.934 41.4548 28.015 41.1068 28.063C40.7648 28.111 40.4318 28.135 40.1078 28.135C39.4658 28.135 38.8688 28.03 38.3168 27.82C37.7648 27.604 37.2848 27.289 36.8768 26.875C36.4688 26.455 36.1478 25.939 35.9138 25.327C35.6798 24.709 35.5627 23.995 35.5627 23.185C35.5627 22.555 35.6648 21.964 35.8688 21.412C36.0728 20.854 36.3638 20.371 36.7418 19.963C37.1258 19.549 37.5908 19.222 38.1368 18.982C38.6888 18.742 39.3098 18.622 39.9998 18.622C40.5818 18.622 41.1188 18.715 41.6108 18.901C42.1028 19.087 42.5258 19.36 42.8798 19.72C43.2338 20.074 43.5098 20.512 43.7078 21.034C43.9118 21.55 44.0137 22.141 44.0137 22.807C44.0137 23.143 43.9778 23.371 43.9058 23.491C43.8338 23.605 43.6958 23.662 43.4918 23.662H37.7768ZM52.297 20.719C52.231 20.803 52.165 20.869 52.099 20.917C52.039 20.965 51.949 20.989 51.829 20.989C51.715 20.989 51.604 20.956 51.496 20.89C51.388 20.818 51.259 20.74 51.109 20.656C50.959 20.566 50.779 20.488 50.569 20.422C50.365 20.35 50.11 20.314 49.804 20.314C49.414 20.314 49.072 20.386 48.778 20.53C48.484 20.668 48.238 20.869 48.04 21.133C47.848 21.397 47.704 21.718 47.608 22.096C47.512 22.468 47.464 22.891 47.464 23.365C47.464 23.857 47.515 24.295 47.617 24.679C47.725 25.063 47.878 25.387 48.076 25.651C48.274 25.909 48.514 26.107 48.796 26.245C49.078 26.377 49.396 26.443 49.75 26.443C50.104 26.443 50.389 26.401 50.605 26.317C50.827 26.227 51.013 26.131 51.163 26.029C51.313 25.921 51.442 25.825 51.55 25.741C51.664 25.651 51.79 25.606 51.928 25.606C52.108 25.606 52.243 25.675 52.333 25.813L52.972 26.623C52.726 26.911 52.459 27.154 52.171 27.352C51.883 27.544 51.583 27.7 51.271 27.82C50.965 27.934 50.647 28.015 50.317 28.063C49.993 28.111 49.669 28.135 49.345 28.135C48.775 28.135 48.238 28.03 47.734 27.82C47.23 27.604 46.789 27.292 46.411 26.884C46.033 26.476 45.733 25.978 45.511 25.39C45.295 24.796 45.187 24.121 45.187 23.365C45.187 22.687 45.283 22.06 45.475 21.484C45.673 20.902 45.961 20.401 46.339 19.981C46.717 19.555 47.185 19.222 47.743 18.982C48.301 18.742 48.943 18.622 49.669 18.622C50.359 18.622 50.962 18.733 51.478 18.955C52 19.177 52.468 19.495 52.882 19.909L52.297 20.719ZM58.2934 18.622C58.9774 18.622 59.5984 18.733 60.1564 18.955C60.7204 19.177 61.2004 19.492 61.5964 19.9C61.9984 20.308 62.3074 20.806 62.5234 21.394C62.7394 21.982 62.8474 22.639 62.8474 23.365C62.8474 24.097 62.7394 24.757 62.5234 25.345C62.3074 25.933 61.9984 26.434 61.5964 26.848C61.2004 27.262 60.7204 27.58 60.1564 27.802C59.5984 28.024 58.9774 28.135 58.2934 28.135C57.6034 28.135 56.9764 28.024 56.4124 27.802C55.8484 27.58 55.3654 27.262 54.9634 26.848C54.5674 26.434 54.2584 25.933 54.0364 25.345C53.8204 24.757 53.7124 24.097 53.7124 23.365C53.7124 22.639 53.8204 21.982 54.0364 21.394C54.2584 20.806 54.5674 20.308 54.9634 19.9C55.3654 19.492 55.8484 19.177 56.4124 18.955C56.9764 18.733 57.6034 18.622 58.2934 18.622ZM58.2934 26.425C59.0614 26.425 59.6284 26.167 59.9944 25.651C60.3664 25.135 60.5524 24.379 60.5524 23.383C60.5524 22.387 60.3664 21.628 59.9944 21.106C59.6284 20.584 59.0614 20.323 58.2934 20.323C57.5134 20.323 56.9344 20.587 56.5564 21.115C56.1844 21.637 55.9984 22.393 55.9984 23.383C55.9984 24.373 56.1844 25.129 56.5564 25.651C56.9344 26.167 57.5134 26.425 58.2934 26.425ZM66.6403 20.368C66.9283 19.816 67.2703 19.384 67.6663 19.072C68.0623 18.754 68.5303 18.595 69.0703 18.595C69.4963 18.595 69.8383 18.688 70.0963 18.874L69.9523 20.539C69.9223 20.647 69.8773 20.725 69.8173 20.773C69.7633 20.815 69.6883 20.836 69.5923 20.836C69.5023 20.836 69.3673 20.821 69.1873 20.791C69.0133 20.761 68.8423 20.746 68.6743 20.746C68.4283 20.746 68.2093 20.782 68.0173 20.854C67.8253 20.926 67.6513 21.031 67.4953 21.169C67.3453 21.301 67.2103 21.463 67.0903 21.655C66.9763 21.847 66.8683 22.066 66.7663 22.312V28H64.5433V18.766H65.8483C66.0763 18.766 66.2353 18.808 66.3253 18.892C66.4153 18.97 66.4753 19.114 66.5053 19.324L66.6403 20.368ZM76.8081 21.124C76.5561 20.818 76.2801 20.602 75.9801 20.476C75.6861 20.35 75.3681 20.287 75.0261 20.287C74.6901 20.287 74.3871 20.35 74.1171 20.476C73.8471 20.602 73.6161 20.794 73.4241 21.052C73.2321 21.304 73.0851 21.628 72.9831 22.024C72.8811 22.414 72.8301 22.876 72.8301 23.41C72.8301 23.95 72.8721 24.409 72.9561 24.787C73.0461 25.159 73.1721 25.465 73.3341 25.705C73.4961 25.939 73.6941 26.11 73.9281 26.218C74.1621 26.32 74.4231 26.371 74.7111 26.371C75.1731 26.371 75.5661 26.275 75.8901 26.083C76.2141 25.891 76.5201 25.618 76.8081 25.264V21.124ZM79.0311 14.626V28H77.6721C77.3781 28 77.1921 27.865 77.1141 27.595L76.9251 26.704C76.5531 27.13 76.1241 27.475 75.6381 27.739C75.1581 28.003 74.5971 28.135 73.9551 28.135C73.4511 28.135 72.9891 28.03 72.5691 27.82C72.1491 27.61 71.7861 27.307 71.4801 26.911C71.1801 26.509 70.9461 26.014 70.7781 25.426C70.6161 24.838 70.5351 24.166 70.5351 23.41C70.5351 22.726 70.6281 22.09 70.8141 21.502C71.0001 20.914 71.2671 20.404 71.6151 19.972C71.9631 19.54 72.3801 19.204 72.8661 18.964C73.3521 18.718 73.8981 18.595 74.5041 18.595C75.0201 18.595 75.4611 18.676 75.8271 18.838C76.1931 19 76.5201 19.219 76.8081 19.495V14.626H79.0311Z" fill="#101F40"/>
<path d="M102 12C103.105 12 104 12.8954 104 14H90V25.1765C88.8954 25.1765 88 24.281 88 23.1765V14C88 12.8954 88.8954 12 90 12H102Z" fill="#101F40"/>
<path d="M100 32L97.3333 29.1765H94C92.8954 29.1765 92 28.281 92 27.1765V18C92 16.8954 92.8954 16 94 16H106C107.105 16 108 16.8954 108 18V27.1765C108 28.281 107.105 29.1765 106 29.1765H102.667L100 32ZM101.805 27.1765H106V18H94V27.1765H98.1954L100 29.0872L101.805 27.1765Z" fill="#101F40"/>
<defs>
<filter id="filter0_d_1_577" x="0" y="0" width="143" height="52" filterUnits="userSpaceOnUse" color-interpolation-filters="sRGB">
<feFlood flood-opacity="0" result="BackgroundImageFix"/>
<feColorMatrix in="SourceAlpha" type="matrix" values="0 0 0 0 0 0 0 0 0 0 0 0 0 0 0 0 0 0 127 0" result="hardAlpha"/>
<feOffset dx="4" dy="4"/>
<feGaussianBlur stdDeviation="4"/>
<feComposite in2="hardAlpha" operator="out"/>
<feColorMatrix type="matrix" values="0 0 0 0 0 0 0 0 0 0 0 0 0 0 0 0 0 0 0.25 0"/>
<feBlend mode="normal" in2="BackgroundImageFix" result="effect1_dropShadow_1_577"/>
<feBlend mode="normal" in="SourceGraphic" in2="effect1_dropShadow_1_577" result="shape"/>
</filter>
</defs>
</svg>
